<?xml version="1.0" encoding="UTF-8" standalone="no"?>
<svg
   xmlns:dc="http://purl.org/dc/elements/1.1/"
   xmlns:cc="http://creativecommons.org/ns#"
   xmlns:rdf="http://www.w3.org/1999/02/22-rdf-syntax-ns#"
   xmlns:svg="http://www.w3.org/2000/svg"
   xmlns="http://www.w3.org/2000/svg"
   xmlns:sodipodi="http://sodipodi.sourceforge.net/DTD/sodipodi-0.dtd"
   xmlns:inkscape="http://www.inkscape.org/namespaces/inkscape"
   viewBox="0 0 2006.6287 1760.0039"
   width="2508.2859"
   height="2200.0049"
   version="1.1"
   id="svg6"
   sodipodi:docname="icon-usdt-dark.svg"
   inkscape:version="0.92.5 (2060ec1f9f, 2020-04-08)">
  <metadata
     id="metadata12">
    <rdf:RDF>
      <cc:Work
         rdf:about="">
        <dc:format>image/svg+xml</dc:format>
        <dc:type
           rdf:resource="http://purl.org/dc/dcmitype/StillImage" />
        <dc:title />
      </cc:Work>
    </rdf:RDF>
  </metadata>
  <defs
     id="defs10" />
  <sodipodi:namedview
     pagecolor="#ffffff"
     bordercolor="#666666"
     borderopacity="1"
     objecttolerance="10"
     gridtolerance="10"
     guidetolerance="10"
     inkscape:pageopacity="0"
     inkscape:pageshadow="2"
     inkscape:window-width="1920"
     inkscape:window-height="1137"
     id="namedview8"
     showgrid="false"
     inkscape:zoom="0.34"
     inkscape:cx="772.05882"
     inkscape:cy="1108.0013"
     inkscape:window-x="-8"
     inkscape:window-y="-8"
     inkscape:window-maximized="1"
     inkscape:current-layer="svg6" />
  <path
     style="fill:#000000;stroke:none;stroke-width:1px;stroke-linecap:butt;stroke-linejoin:miter;stroke-opacity:1"
     d="M 455.05859 0 L 0 985.29883 L 1254 2200.0059 L 2508 985.29883 L 2052.9414 0 L 1254 0 L 455.05859 0 z M 662.23828 298.31445 L 1847.0703 298.31445 L 1847.0703 588.22852 L 1411.9551 588.22852 L 1411.9551 778.50391 L 1412.0586 778.55469 C 1765.0833 794.85011 2030.4648 864.84126 2030.4648 948.67188 C 2030.4648 1032.5025 1765.0833 1102.4936 1412.0586 1118.7891 L 1412.0586 1728.3203 L 1097.4043 1728.3203 L 1097.4043 1118.8398 C 743.86788 1102.4933 477.82031 1032.4523 477.82031 948.54492 C 477.82031 864.63757 743.73997 794.59581 1097.4043 778.35156 L 1097.4043 588.22852 L 662.23828 588.22852 L 662.23828 298.31445 z M 1097.5586 800.55469 C 785.13167 814.41986 551.87891 868.75639 551.87891 933.86133 C 551.87891 998.96627 785.10608 1053.3772 1097.5586 1067.2168 L 1097.5586 1066.9609 C 1117.6912 1068.0098 1174.8141 1070.3125 1256.0098 1070.3125 C 1357.5684 1070.3125 1403.1817 1067.5745 1412.0586 1067.0117 L 1412.0586 1067.166 L 1412.1094 1067.0391 C 1723.8456 1053.1483 1956.6367 998.6579 1956.6367 933.7832 C 1956.6367 868.90849 1723.948 814.44544 1412.1094 800.55469 L 1412.1094 1013.0098 C 1403.1559 1013.8284 1354.3705 1017.8711 1257.3398 1017.8711 C 1176.5534 1017.8711 1118.0238 1014.4168 1097.5586 1013.0098 L 1097.5586 800.55469 z "
     transform="scale(0.8)"
     id="path42" />
</svg>
