<?xml version="1.0" encoding="UTF-8" standalone="no"?>
<svg
   xmlns:dc="http://purl.org/dc/elements/1.1/"
   xmlns:cc="http://creativecommons.org/ns#"
   xmlns:rdf="http://www.w3.org/1999/02/22-rdf-syntax-ns#"
   xmlns:svg="http://www.w3.org/2000/svg"
   xmlns="http://www.w3.org/2000/svg"
   xmlns:sodipodi="http://sodipodi.sourceforge.net/DTD/sodipodi-0.dtd"
   xmlns:inkscape="http://www.inkscape.org/namespaces/inkscape"
   width="469.308"
   height="706.122"
   viewBox="0 0 124.171 186.828"
   version="1.1"
   id="svg835"
   sodipodi:docname="icon-win-dark.svg"
   inkscape:version="0.92.5 (2060ec1f9f, 2020-04-08)">
  <metadata
     id="metadata841">
    <rdf:RDF>
      <cc:Work
         rdf:about="">
        <dc:format>image/svg+xml</dc:format>
        <dc:type
           rdf:resource="http://purl.org/dc/dcmitype/StillImage" />
      </cc:Work>
    </rdf:RDF>
  </metadata>
  <defs
     id="defs839" />
  <sodipodi:namedview
     pagecolor="#ffffff"
     bordercolor="#666666"
     borderopacity="1"
     objecttolerance="10"
     gridtolerance="10"
     guidetolerance="10"
     inkscape:pageopacity="0"
     inkscape:pageshadow="2"
     inkscape:window-width="1920"
     inkscape:window-height="1137"
     id="namedview837"
     showgrid="false"
     inkscape:zoom="1.3283823"
     inkscape:cx="234.65401"
     inkscape:cy="353.061"
     inkscape:window-x="-8"
     inkscape:window-y="-8"
     inkscape:window-maximized="1"
     inkscape:current-layer="svg835" />
  <path
     d="M119.75 0a4.421 4.42 0 00-2.21.598l-.004-.004s-12.083 6.93-17.212 9.763c-4.204 2.322-4.51 5.117-4.485 6.06-.025.945.28 3.74 4.485 6.062 5.13 2.833 17.212 9.763 17.212 9.763l.004-.004a4.421 4.42 0 002.21.597 4.421 4.42 0 004.42-4.421 4.421 4.42 0 00-2.214-3.827l.004-.006-14.887-8.163 14.888-8.164-.004-.006a4.421 4.42 0 002.214-3.826 4.421 4.42 0 00-4.42-4.421zM16.418 0A16.417 16.417 0 000 16.417a16.417 16.417 0 0016.418 16.418 16.417 16.417 0 0016.417-16.418A16.417 16.417 0 0016.418 0z"
     id="path829" />
  <path
     d="M14.051 44.678A14.051 12.95 0 000 57.628a14.051 12.95 0 00.357 2.855l-.03.006 19.928 74.875.038-.008a14.051 12.95 0 0013.544 9.56 14.051 12.95 0 0013.377-9.036l.018.08 14.853-39.072 14.854 39.072.018-.08a14.051 12.95 0 0013.377 9.036 14.051 12.95 0 0013.544-9.56l.037.008 19.929-74.875-.03-.006a14.051 12.95 0 00.357-2.854 14.051 12.95 0 00-14.051-12.951 14.051 12.95 0 00-13.857 10.9l-.032-.006-8.254 30.925-12.625-33.24-.047.015a14.051 12.95 0 00-.025-.057 14.051 12.95 0 00-.438-.972 14.051 12.95 0 00-.11-.228 14.051 12.95 0 00-.533-.914 14.051 12.95 0 00-.14-.225 14.051 12.95 0 00-.62-.847 14.051 12.95 0 00-.174-.225 14.051 12.95 0 00-.686-.762 14.051 12.95 0 00-.228-.238 14.051 12.95 0 00-.747-.678 14.051 12.95 0 00-.26-.223 14.051 12.95 0 00-.799-.593 14.051 12.95 0 00-.312-.219 14.051 12.95 0 00-.818-.491 14.051 12.95 0 00-.376-.212 14.051 12.95 0 00-.833-.398 14.051 12.95 0 00-.427-.19 14.051 12.95 0 00-.826-.302 14.051 12.95 0 00-.5-.169 14.051 12.95 0 00-.82-.215 14.051 12.95 0 00-.537-.126 14.051 12.95 0 00-.81-.135 14.051 12.95 0 00-.588-.082 14.051 12.95 0 00-.764-.054 14.051 12.95 0 00-.846-.04 14.051 12.95 0 00-.006 0 14.051 12.95 0 00-.864.041 14.051 12.95 0 00-.733.053 14.051 12.95 0 00-.632.087 14.051 12.95 0 00-.767.127 14.051 12.95 0 00-.564.133 14.051 12.95 0 00-.805.211 14.051 12.95 0 00-.5.168 14.051 12.95 0 00-.825.302 14.051 12.95 0 00-.427.191 14.051 12.95 0 00-.832.397 14.051 12.95 0 00-.388.219 14.051 12.95 0 00-.802.482 14.051 12.95 0 00-.327.229 14.051 12.95 0 00-.79.586 14.051 12.95 0 00-.26.222 14.051 12.95 0 00-.745.678 14.051 12.95 0 00-.234.245 14.051 12.95 0 00-.678.753 14.051 12.95 0 00-.183.235 14.051 12.95 0 00-.614.84 14.051 12.95 0 00-.143.23 14.051 12.95 0 00-.528.906 14.051 12.95 0 00-.116.236 14.051 12.95 0 00-.433.966 14.051 12.95 0 00-.027.058l-.047-.016-12.625 33.24-8.254-30.924-.032.006a14.051 12.95 0 00-13.856-10.9z"
     fill="#fbc509"
     id="path831"
     style="fill:#000000" />
  <path
     d="M117.265 155.248a6.935 7.01 0 00-4.9 2.057l-.003-.003-.032.036a6.935 7.01 0 00-.15.165c-1.659 1.782-15.38 15.303-50.08 15.303h-.052c-34.66-.013-48.369-13.521-50.026-15.303a6.935 7.01 0 00-.15-.165 3.753 3.753 0 00-.032-.036l-.004.003a6.935 7.01 0 00-4.901-2.056A6.935 7.01 0 000 162.259a6.935 7.01 0 001.72 4.608c.08.115.18.232.31.35.038.033.077.066.114.1a6.935 7.01 0 00.505.443C24.453 186.832 62.1 186.828 62.1 186.828s37.647.003 59.452-19.069a6.935 7.01 0 00.505-.443l.113-.1a2.02 2.02 0 00.31-.35 6.935 7.01 0 001.72-4.608 6.935 7.01 0 00-6.935-7.01z"
     id="path833" />
</svg>
