<?xml version="1.0" encoding="UTF-8" standalone="no"?>
<!-- Created with Inkscape (http://www.inkscape.org/) -->

<svg
   xmlns:dc="http://purl.org/dc/elements/1.1/"
   xmlns:cc="http://creativecommons.org/ns#"
   xmlns:rdf="http://www.w3.org/1999/02/22-rdf-syntax-ns#"
   xmlns:svg="http://www.w3.org/2000/svg"
   xmlns="http://www.w3.org/2000/svg"
   xmlns:sodipodi="http://sodipodi.sourceforge.net/DTD/sodipodi-0.dtd"
   xmlns:inkscape="http://www.inkscape.org/namespaces/inkscape"
   width="200mm"
   height="200mm"
   viewBox="0 0 200 200"
   version="1.1"
   id="svg8"
   inkscape:version="0.92.5 (2060ec1f9f, 2020-04-08)"
   sodipodi:docname="pie-chart.svg">
  <defs
     id="defs2" />
  <sodipodi:namedview
     id="base"
     pagecolor="#ffffff"
     bordercolor="#666666"
     borderopacity="1.0"
     inkscape:pageopacity="0.0"
     inkscape:pageshadow="2"
     inkscape:zoom="0.66245342"
     inkscape:cx="492.98793"
     inkscape:cy="391.47006"
     inkscape:document-units="mm"
     inkscape:current-layer="layer1"
     showgrid="false"
     inkscape:window-width="1920"
     inkscape:window-height="1137"
     inkscape:window-x="-8"
     inkscape:window-y="-8"
     inkscape:window-maximized="1" />
  <metadata
     id="metadata5">
    <rdf:RDF>
      <cc:Work
         rdf:about="">
        <dc:format>image/svg+xml</dc:format>
        <dc:type
           rdf:resource="http://purl.org/dc/dcmitype/StillImage" />
        <dc:title></dc:title>
      </cc:Work>
    </rdf:RDF>
  </metadata>
  <g
     inkscape:label="Layer 1"
     inkscape:groupmode="layer"
     id="layer1"
     transform="translate(0,-97)">
    <path
       style="fill:#fbc208;stroke:none;stroke-width:0.99999994px;stroke-linecap:butt;stroke-linejoin:miter;stroke-opacity:1;fill-opacity:1"
       d="M 377.95312 0 L 377.95312 377.95312 L 27.1875 518.25977 A 377.95276 377.95276 0 0 0 377.95312 755.90625 A 377.95276 377.95276 0 0 0 755.90625 377.95312 A 377.95276 377.95276 0 0 0 377.95312 0 z "
       id="path102"
       transform="matrix(0.26458333,0,0,0.26458333,0,97)" />
    <path
       style="fill:#ff8d01;stroke:none;stroke-width:0.26458332px;stroke-linecap:butt;stroke-linejoin:miter;stroke-opacity:1;fill-opacity:1"
       d="M 21.987287,134.58944 A 100,100 0 0 0 5.1593749e-4,197.0001 100,100 0 0 0 7.1933593,234.1229 L 100.00009,197.0001 Z"
       id="path104-7"
       inkscape:connector-curvature="0" />
    <path
       style="fill:#ff6901;stroke:none;stroke-width:0.26458332px;stroke-linecap:butt;stroke-linejoin:miter;stroke-opacity:1;fill-opacity:1"
       d="m 62.877815,104.19285 a 100,100 0 0 0 -40.890528,30.39659 l 78.013333,62.41014 z"
       id="path108-0"
       inkscape:connector-curvature="0" />
    <path
       style="fill:#ff2c01;stroke:none;stroke-width:0.26458332px;stroke-linecap:butt;stroke-linejoin:miter;stroke-opacity:1;fill-opacity:1"
       d="m 100.00009,97.000007 a 100,100 0 0 0 -37.122275,7.192843 l 37.122275,92.80673 z"
       id="path106-9-6"
       inkscape:connector-curvature="0" />
  </g>
</svg>
